<svg viewBox="0 0 1920 608.6" xmlns="http://www.w3.org/2000/svg" xmlns:xlink="http://www.w3.org/1999/xlink"><path d="m-2.43-.37h1921.14v768.17h-1921.14z" fill="#8da5fe"/><g fill="#fff"><text font-family="Poppins-ExtraBold, Poppins" font-size="332.76" font-weight="700" transform="translate(73.45 302.53)"><tspan x="0" y="0">StreetArt</tspan></text><path d="m142.26 442.41-49.02-.24-2.36 23.63-40.39-.2 19.18-144.81 44.31.22 81.4 145.31-40.59-.2-12.54-23.7zm-16.25-30.91-24.99-46.99-4.61 46.84 29.61.14z"/><path d="m362.08 363.94c9.8 8.82 16.33 20.84 19.61 36.07l14.47 67.28-38.43-.19-13.32-61.93c-1.33-6.17-4-10.98-8-14.43-4.01-3.44-8.82-5.18-14.44-5.21s-9.7 1.67-12.23 5.08-3.13 8.21-1.8 14.38l13.32 61.93-38.43-.19-13.32-61.93c-1.33-6.17-3.96-10.98-7.9-14.43-3.94-3.44-8.72-5.18-14.34-5.21s-9.89 1.67-12.42 5.08-3.13 8.21-1.8 14.38l13.32 61.93-38.43-.19-24.83-115.43 38.43.19 3.28 15.23c2.34-4.92 5.9-8.84 10.69-11.77 4.79-2.92 10.71-4.37 17.77-4.33 8.1.04 15.72 1.93 22.86 5.66s13.26 8.97 18.36 15.71c2.56-6.29 6.63-11.38 12.19-15.25 5.56-3.88 12.2-5.8 19.91-5.76 13.85.07 25.68 4.51 35.48 13.33z"/><path d="m436.61 463.68c-8.53-3.54-15.71-8.37-21.53-14.49s-9.82-13.03-12-20.72l37.25.18c1.32 3.71 3.57 6.59 6.76 8.67 3.19 2.07 6.81 3.12 10.86 3.14 3.14.02 5.47-.66 7.01-2.02 1.53-1.36 2.07-3.14 1.59-5.34-.62-2.88-2.58-5.01-5.88-6.4-3.3-1.38-8.59-2.92-15.87-4.6-8.2-1.68-15.13-3.57-20.8-5.65s-10.94-5.46-15.8-10.15c-4.86-4.68-8.14-11-9.86-18.96-1.48-6.86-1.05-13.06 1.29-18.59 2.33-5.54 6.58-9.94 12.73-13.2s14.07-4.86 23.74-4.82c14.38.07 26.48 3.83 36.31 11.28s16.69 17.21 20.6 29.29l-34.7-.17c-1.45-3.71-3.6-6.56-6.44-8.56-2.85-2-6.3-3.01-10.35-3.03-3.14-.02-5.39.59-6.76 1.82s-1.82 2.94-1.34 5.13c.59 2.75 2.54 4.84 5.86 6.3s8.47 2.96 15.46 4.5c8.36 1.82 15.42 3.85 21.18 6.06 5.77 2.22 11.16 5.78 16.2 10.66 5.03 4.89 8.45 11.52 10.25 19.89 1.45 6.72.88 12.75-1.69 18.08s-6.96 9.52-13.16 12.58c-6.2 3.05-13.94 4.56-23.22 4.51-9.93-.05-19.17-1.84-27.7-5.38z"/><path d="m586.01 433.89 7.39 34.36-16.67-.08c-28.11-.14-45.3-14.81-51.58-44.03l-8.19-38.07-13.53-.07-7.21-33.54 13.53.07-6.02-27.98 38.63.19 6.02 27.98 20 .1 7.21 33.54-20-.1 8.32 38.68c.68 3.16 1.85 5.42 3.52 6.8s4.13 2.07 7.4 2.09l11.18.05z"/><path d="m704.88 419.26-72.74-.36c1.75 6.31 4.43 11.02 8.03 14.12 3.61 3.1 7.69 4.66 12.27 4.68 6.4.03 10.33-2.96 11.78-8.99l40.98.2c.01 7.95-1.76 15.03-5.32 21.25s-8.68 11.09-15.36 14.62-14.53 5.27-23.55 5.23c-10.85-.05-21.01-2.5-30.47-7.34s-17.54-11.73-24.23-20.67-11.33-19.44-13.93-31.52c-2.6-12.07-2.49-22.52.31-31.34 2.8-8.83 7.9-15.61 15.3-20.38 7.4-4.76 16.59-7.11 27.57-7.06 10.85.05 20.96 2.43 30.33 7.14s17.34 11.43 23.92 20.16c6.58 8.74 11.14 19 13.68 30.8.68 3.16 1.16 6.31 1.45 9.46zm-42.83-19.74c-1.06-4.94-3.46-8.82-7.21-11.65-3.74-2.82-7.97-4.25-12.67-4.28-4.71-.02-8.27 1.3-10.7 3.96s-3.55 6.6-3.34 11.8z"/><path d="m762.12 358.49c5.32-3.81 11.51-5.7 18.56-5.66l9.25 43-10.78-.05c-8.37-.04-14.21 1.65-17.52 5.05-3.31 3.41-4.06 9.37-2.23 17.87l10.84 50.41-38.43-.19-24.83-115.43 38.43.19 4.38 20.37c2.9-6.56 7-11.75 12.32-15.56z"/><path d="m800.2 380.26c2.2-8.9 6.38-15.72 12.53-20.49 6.16-4.77 13.61-7.13 22.37-7.08 7.06.03 13.69 1.61 19.92 4.72 6.22 3.11 11.47 7.35 15.76 12.72l-11.33-52.67 38.62.19 32.75 152.26-38.62-.19-3.45-16.05c-1.86 5.34-5.19 9.57-10 12.69-4.81 3.13-10.94 4.67-18.39 4.64-8.76-.04-17.22-2.48-25.37-7.32-8.16-4.83-15.26-11.76-21.31-20.76s-10.36-19.48-12.93-31.41-2.75-22.35-.55-31.24zm70.22 14.11c-4.77-4.27-9.97-6.42-15.59-6.45s-10.07 2.04-12.96 6.21-3.52 10.02-1.9 17.56c1.59 7.41 4.75 13.28 9.47 17.62s9.95 6.52 15.71 6.55 9.9-2.07 12.84-6.31c2.94-4.23 3.6-10.12 1.98-17.67s-4.78-13.25-9.55-17.52z"/><path d="m933.52 380.91c2.2-8.9 6.34-15.73 12.44-20.49 6.09-4.77 13.51-7.13 22.27-7.09 7.58.04 14.46 1.65 20.63 4.83s11.33 7.45 15.49 12.82l-3.45-16.05 38.43.19 24.83 115.43-38.43-.19-3.45-16.05c-1.86 5.34-5.22 9.57-10.1 12.69-4.88 3.13-11.04 4.67-18.49 4.64-8.76-.04-17.22-2.48-25.37-7.32-8.16-4.83-15.26-11.76-21.31-20.76s-10.36-19.48-12.93-31.41-2.75-22.35-.55-31.24zm70.22 14.11c-4.77-4.27-9.97-6.42-15.59-6.45s-10.07 2.04-12.96 6.21-3.52 10.02-1.9 17.56c1.59 7.41 4.75 13.28 9.47 17.62s9.95 6.52 15.71 6.55 9.9-2.07 12.84-6.31c2.94-4.23 3.6-10.12 1.98-17.67-1.59-7.41-4.78-13.25-9.55-17.52z"/><path d="m1240.25 368.23c9.8 8.82 16.33 20.84 19.61 36.07l14.47 67.28-38.43-.19-13.32-61.93c-1.33-6.17-4-10.98-8-14.43-4.01-3.44-8.82-5.18-14.44-5.21s-9.7 1.67-12.23 5.08-3.13 8.21-1.8 14.38l13.32 61.93-38.43-.19-13.32-61.93c-1.33-6.17-3.96-10.98-7.9-14.43-3.94-3.44-8.72-5.18-14.34-5.21-5.75-.03-9.89 1.67-12.42 5.08s-3.13 8.21-1.8 14.38l13.32 61.93-38.43-.19-24.83-115.43 38.43.19 3.28 15.23c2.34-4.92 5.9-8.84 10.69-11.77 4.79-2.92 10.72-4.37 17.77-4.33 8.1.04 15.72 1.93 22.86 5.66s13.26 8.97 18.36 15.71c2.56-6.29 6.63-11.38 12.19-15.25 5.56-3.88 12.2-5.8 19.91-5.76 13.85.07 25.68 4.51 35.48 13.33z"/></g><image height="692" transform="matrix(.47 0 0 .47 1276.2 265.52)" width="1293" xlink:href="fiets.png"/></svg>