<?xml version="1.0" standalone="no"?>
<!DOCTYPE svg PUBLIC "-//W3C//DTD SVG 20010904//EN"
 "http://www.w3.org/TR/2001/REC-SVG-20010904/DTD/svg10.dtd">
<svg version="1.0" xmlns="http://www.w3.org/2000/svg"
 width="512.000000pt" height="512.000000pt" viewBox="0 0 512.000000 512.000000"
 preserveAspectRatio="xMidYMid meet">

<g transform="translate(0.000000,512.000000) scale(0.100000,-0.100000)"
fill="#000000" stroke="none">
<path d="M203 5110 c-87 -20 -168 -100 -193 -190 -13 -46 -13 -195 1 -395 68
-1045 454 -2004 1133 -2815 98 -117 369 -393 496 -505 576 -506 1269 -872
2000 -1055 311 -78 585 -120 910 -141 261 -16 362 -10 429 27 54 29 83 60 117
124 18 33 19 70 22 584 3 640 5 628 -81 711 -29 28 -70 56 -92 63 -22 7 -125
17 -230 22 -320 15 -581 60 -812 140 -171 59 -188 62 -236 49 -23 -6 -55 -18
-72 -26 -16 -9 -179 -163 -360 -344 -182 -181 -334 -329 -339 -329 -15 0 -220
122 -363 216 -622 407 -1100 915 -1445 1534 -32 57 -58 110 -58 116 0 6 145
150 323 319 347 332 366 355 386 470 12 66 9 80 -48 272 -68 231 -107 471
-121 752 -12 237 -24 276 -98 341 -79 70 -78 70 -691 69 -300 -1 -560 -4 -578
-9z"/>
</g>
</svg>
